<?xml version="1.0" encoding="UTF-8" standalone="no"?>
<!DOCTYPE svg PUBLIC "-//W3C//DTD SVG 1.1//EN"
 "http://www.w3.org/Graphics/SVG/1.1/DTD/svg11.dtd">
<!-- Generated by graphviz version 2.43.0 (0)
 -->
<!-- Title: diag Pages: 1 -->
<svg width="876pt" height="636pt"
 viewBox="0.00 0.00 876.00 636.00" xmlns="http://www.w3.org/2000/svg" xmlns:xlink="http://www.w3.org/1999/xlink">
<g id="graph0" class="graph" transform="scale(1 1) rotate(0) translate(4 632)">
<title>diag</title>
<polygon fill="white" stroke="transparent" points="-4,4 -4,-632 872,-632 872,4 -4,4"/>
<!-- Início -->
<g id="node1" class="node">
<title>Início</title>
<path fill="lightgrey" stroke="black" d="M564,-628C564,-628 532,-628 532,-628 526,-628 520,-622 520,-616 520,-616 520,-604 520,-604 520,-598 526,-592 532,-592 532,-592 564,-592 564,-592 570,-592 576,-598 576,-604 576,-604 576,-616 576,-616 576,-622 570,-628 564,-628"/>
<text text-anchor="middle" x="548" y="-606.3" font-family="Times,serif" font-size="14.00">Início</text>
</g>
<!-- Configuração de Ambiente\n3 / 3 -->
<g id="node2" class="node">
<title>Configuração de Ambiente\n3 / 3</title>
<path fill="lightblue" stroke="green" stroke-width="3" d="M370.5,-556C370.5,-556 189.5,-556 189.5,-556 183.5,-556 177.5,-550 177.5,-544 177.5,-544 177.5,-530 177.5,-530 177.5,-524 183.5,-518 189.5,-518 189.5,-518 370.5,-518 370.5,-518 376.5,-518 382.5,-524 382.5,-530 382.5,-530 382.5,-544 382.5,-544 382.5,-550 376.5,-556 370.5,-556"/>
<text text-anchor="middle" x="280" y="-540.8" font-family="Times,serif" font-size="14.00">Configuração de Ambiente</text>
<text text-anchor="middle" x="280" y="-525.8" font-family="Times,serif" font-size="14.00">3 / 3</text>
</g>
<!-- Início&#45;&gt;Configuração de Ambiente\n3 / 3 -->
<g id="edge1" class="edge">
<title>Início&#45;&gt;Configuração de Ambiente\n3 / 3</title>
<path fill="none" stroke="black" d="M519.83,-601.54C481.74,-591.45 412.36,-573.06 357.98,-558.66"/>
<polygon fill="black" stroke="black" points="358.57,-555.2 348.01,-556.02 356.78,-561.96 358.57,-555.2"/>
</g>
<!-- Revisão do P5\n3 / 3 -->
<g id="node4" class="node">
<title>Revisão do P5\n3 / 3</title>
<path fill="lightblue" stroke="green" stroke-width="3" d="M508.5,-556C508.5,-556 415.5,-556 415.5,-556 409.5,-556 403.5,-550 403.5,-544 403.5,-544 403.5,-530 403.5,-530 403.5,-524 409.5,-518 415.5,-518 415.5,-518 508.5,-518 508.5,-518 514.5,-518 520.5,-524 520.5,-530 520.5,-530 520.5,-544 520.5,-544 520.5,-550 514.5,-556 508.5,-556"/>
<text text-anchor="middle" x="462" y="-540.8" font-family="Times,serif" font-size="14.00">Revisão do P5</text>
<text text-anchor="middle" x="462" y="-525.8" font-family="Times,serif" font-size="14.00">3 / 3</text>
</g>
<!-- Início&#45;&gt;Revisão do P5\n3 / 3 -->
<g id="edge3" class="edge">
<title>Início&#45;&gt;Revisão do P5\n3 / 3</title>
<path fill="none" stroke="black" d="M527.18,-591.81C516.52,-583.01 503.35,-572.14 491.65,-562.48"/>
<polygon fill="black" stroke="black" points="493.77,-559.69 483.83,-556.02 489.31,-565.09 493.77,-559.69"/>
</g>
<!-- Modificadores de acesso\n2 / 2 -->
<g id="node9" class="node">
<title>Modificadores de acesso\n2 / 2</title>
<path fill="lightgreen" stroke="green" stroke-width="3" d="M717.5,-556C717.5,-556 550.5,-556 550.5,-556 544.5,-556 538.5,-550 538.5,-544 538.5,-544 538.5,-530 538.5,-530 538.5,-524 544.5,-518 550.5,-518 550.5,-518 717.5,-518 717.5,-518 723.5,-518 729.5,-524 729.5,-530 729.5,-530 729.5,-544 729.5,-544 729.5,-550 723.5,-556 717.5,-556"/>
<text text-anchor="middle" x="634" y="-540.8" font-family="Times,serif" font-size="14.00">Modificadores de acesso</text>
<text text-anchor="middle" x="634" y="-525.8" font-family="Times,serif" font-size="14.00">2 / 2</text>
</g>
<!-- Início&#45;&gt;Modificadores de acesso\n2 / 2 -->
<g id="edge9" class="edge">
<title>Início&#45;&gt;Modificadores de acesso\n2 / 2</title>
<path fill="none" stroke="black" d="M568.82,-591.81C579.48,-583.01 592.65,-572.14 604.35,-562.48"/>
<polygon fill="black" stroke="black" points="606.69,-565.09 612.17,-556.02 602.23,-559.69 606.69,-565.09"/>
</g>
<!-- Arrays com p5\n0 / 8 -->
<g id="node16" class="node">
<title>Arrays com p5\n0 / 8</title>
<path fill="cyan" stroke="red" stroke-width="3" d="M856,-556C856,-556 760,-556 760,-556 754,-556 748,-550 748,-544 748,-544 748,-530 748,-530 748,-524 754,-518 760,-518 760,-518 856,-518 856,-518 862,-518 868,-524 868,-530 868,-530 868,-544 868,-544 868,-550 862,-556 856,-556"/>
<text text-anchor="middle" x="808" y="-540.8" font-family="Times,serif" font-size="14.00">Arrays com p5</text>
<text text-anchor="middle" x="808" y="-525.8" font-family="Times,serif" font-size="14.00">0 / 8</text>
</g>
<!-- Início&#45;&gt;Arrays com p5\n0 / 8 -->
<g id="edge17" class="edge">
<title>Início&#45;&gt;Arrays com p5\n0 / 8</title>
<path fill="none" stroke="black" d="M576.32,-601.27C614.85,-590.74 685.07,-571.57 738.14,-557.08"/>
<polygon fill="black" stroke="black" points="739.12,-560.44 747.84,-554.43 737.27,-553.69 739.12,-560.44"/>
</g>
<!-- Introdução ao Typescript\n9 / 9 -->
<g id="node3" class="node">
<title>Introdução ao Typescript\n9 / 9</title>
<path fill="lightblue" stroke="green" stroke-width="3" d="M360.5,-482C360.5,-482 189.5,-482 189.5,-482 183.5,-482 177.5,-476 177.5,-470 177.5,-470 177.5,-456 177.5,-456 177.5,-450 183.5,-444 189.5,-444 189.5,-444 360.5,-444 360.5,-444 366.5,-444 372.5,-450 372.5,-456 372.5,-456 372.5,-470 372.5,-470 372.5,-476 366.5,-482 360.5,-482"/>
<text text-anchor="middle" x="275" y="-466.8" font-family="Times,serif" font-size="14.00">Introdução ao Typescript</text>
<text text-anchor="middle" x="275" y="-451.8" font-family="Times,serif" font-size="14.00">9 / 9</text>
</g>
<!-- Configuração de Ambiente\n3 / 3&#45;&gt;Introdução ao Typescript\n9 / 9 -->
<g id="edge2" class="edge">
<title>Configuração de Ambiente\n3 / 3&#45;&gt;Introdução ao Typescript\n9 / 9</title>
<path fill="none" stroke="black" d="M278.74,-517.83C278.2,-510.13 277.57,-500.97 276.97,-492.42"/>
<polygon fill="black" stroke="black" points="280.46,-492.15 276.28,-482.41 273.48,-492.63 280.46,-492.15"/>
</g>
<!-- Classes e Objetos\n3 / 3 -->
<g id="node5" class="node">
<title>Classes e Objetos\n3 / 3</title>
<path fill="pink" stroke="green" stroke-width="3" d="M284.5,-408C284.5,-408 165.5,-408 165.5,-408 159.5,-408 153.5,-402 153.5,-396 153.5,-396 153.5,-382 153.5,-382 153.5,-376 159.5,-370 165.5,-370 165.5,-370 284.5,-370 284.5,-370 290.5,-370 296.5,-376 296.5,-382 296.5,-382 296.5,-396 296.5,-396 296.5,-402 290.5,-408 284.5,-408"/>
<text text-anchor="middle" x="225" y="-392.8" font-family="Times,serif" font-size="14.00">Classes e Objetos</text>
<text text-anchor="middle" x="225" y="-377.8" font-family="Times,serif" font-size="14.00">3 / 3</text>
</g>
<!-- Introdução ao Typescript\n9 / 9&#45;&gt;Classes e Objetos\n3 / 3 -->
<g id="edge4" class="edge">
<title>Introdução ao Typescript\n9 / 9&#45;&gt;Classes e Objetos\n3 / 3</title>
<path fill="none" stroke="black" d="M262.38,-443.83C256.68,-435.62 249.83,-425.76 243.56,-416.73"/>
<polygon fill="black" stroke="black" points="246.37,-414.63 237.79,-408.41 240.62,-418.62 246.37,-414.63"/>
</g>
<!-- Arrays\n5 / 5 -->
<g id="node6" class="node">
<title>Arrays\n5 / 5</title>
<path fill="pink" stroke="green" stroke-width="3" d="M428,-334C428,-334 388,-334 388,-334 382,-334 376,-328 376,-322 376,-322 376,-308 376,-308 376,-302 382,-296 388,-296 388,-296 428,-296 428,-296 434,-296 440,-302 440,-308 440,-308 440,-322 440,-322 440,-328 434,-334 428,-334"/>
<text text-anchor="middle" x="408" y="-318.8" font-family="Times,serif" font-size="14.00">Arrays</text>
<text text-anchor="middle" x="408" y="-303.8" font-family="Times,serif" font-size="14.00">5 / 5</text>
</g>
<!-- Introdução ao Typescript\n9 / 9&#45;&gt;Arrays\n5 / 5 -->
<g id="edge5" class="edge">
<title>Introdução ao Typescript\n9 / 9&#45;&gt;Arrays\n5 / 5</title>
<path fill="none" stroke="black" d="M291.58,-443.8C314.97,-418.12 357.8,-371.11 384.48,-341.82"/>
<polygon fill="black" stroke="black" points="387.07,-344.17 391.22,-334.43 381.89,-339.46 387.07,-344.17"/>
</g>
<!-- Classes aninhadas\n0 / 3 -->
<g id="node15" class="node">
<title>Classes aninhadas\n0 / 3</title>
<path fill="cyan" stroke="red" stroke-width="3" d="M527,-482C527,-482 403,-482 403,-482 397,-482 391,-476 391,-470 391,-470 391,-456 391,-456 391,-450 397,-444 403,-444 403,-444 527,-444 527,-444 533,-444 539,-450 539,-456 539,-456 539,-470 539,-470 539,-476 533,-482 527,-482"/>
<text text-anchor="middle" x="465" y="-466.8" font-family="Times,serif" font-size="14.00">Classes aninhadas</text>
<text text-anchor="middle" x="465" y="-451.8" font-family="Times,serif" font-size="14.00">0 / 3</text>
</g>
<!-- Revisão do P5\n3 / 3&#45;&gt;Classes aninhadas\n0 / 3 -->
<g id="edge16" class="edge">
<title>Revisão do P5\n3 / 3&#45;&gt;Classes aninhadas\n0 / 3</title>
<path fill="none" stroke="black" d="M462.76,-517.83C463.08,-510.13 463.46,-500.97 463.82,-492.42"/>
<polygon fill="black" stroke="black" points="467.31,-492.55 464.23,-482.41 460.32,-492.26 467.31,-492.55"/>
</g>
<!-- Trabalhando com uma única classe\n6 / 6 -->
<g id="node7" class="node">
<title>Trabalhando com uma única classe\n6 / 6</title>
<path fill="lightgreen" stroke="green" stroke-width="3" d="M346,-334C346,-334 104,-334 104,-334 98,-334 92,-328 92,-322 92,-322 92,-308 92,-308 92,-302 98,-296 104,-296 104,-296 346,-296 346,-296 352,-296 358,-302 358,-308 358,-308 358,-322 358,-322 358,-328 352,-334 346,-334"/>
<text text-anchor="middle" x="225" y="-318.8" font-family="Times,serif" font-size="14.00">Trabalhando com uma única classe</text>
<text text-anchor="middle" x="225" y="-303.8" font-family="Times,serif" font-size="14.00">6 / 6</text>
</g>
<!-- Classes e Objetos\n3 / 3&#45;&gt;Trabalhando com uma única classe\n6 / 6 -->
<g id="edge6" class="edge">
<title>Classes e Objetos\n3 / 3&#45;&gt;Trabalhando com uma única classe\n6 / 6</title>
<path fill="none" stroke="black" d="M225,-369.83C225,-362.13 225,-352.97 225,-344.42"/>
<polygon fill="black" stroke="black" points="228.5,-344.41 225,-334.41 221.5,-344.41 228.5,-344.41"/>
</g>
<!-- Agregação e Composição\n4 / 4 -->
<g id="node10" class="node">
<title>Agregação e Composição\n4 / 4</title>
<path fill="lightgreen" stroke="green" stroke-width="3" d="M182,-260C182,-260 12,-260 12,-260 6,-260 0,-254 0,-248 0,-248 0,-234 0,-234 0,-228 6,-222 12,-222 12,-222 182,-222 182,-222 188,-222 194,-228 194,-234 194,-234 194,-248 194,-248 194,-254 188,-260 182,-260"/>
<text text-anchor="middle" x="97" y="-244.8" font-family="Times,serif" font-size="14.00">Agregação e Composição</text>
<text text-anchor="middle" x="97" y="-229.8" font-family="Times,serif" font-size="14.00">4 / 4</text>
</g>
<!-- Classes e Objetos\n3 / 3&#45;&gt;Agregação e Composição\n4 / 4 -->
<g id="edge10" class="edge">
<title>Classes e Objetos\n3 / 3&#45;&gt;Agregação e Composição\n4 / 4</title>
<path fill="none" stroke="black" d="M153.34,-378.13C126.71,-370.6 99.1,-357.34 83,-334 70.05,-315.23 75.64,-289.19 83.26,-269.6"/>
<polygon fill="black" stroke="black" points="86.52,-270.86 87.21,-260.29 80.08,-268.13 86.52,-270.86"/>
</g>
<!-- Algoritmos em Vetores &#45; Estressados Busca\n0 / 5 -->
<g id="node8" class="node">
<title>Algoritmos em Vetores &#45; Estressados Busca\n0 / 5</title>
<path fill="lightgreen" stroke="red" stroke-width="3" d="M542.5,-260C542.5,-260 239.5,-260 239.5,-260 233.5,-260 227.5,-254 227.5,-248 227.5,-248 227.5,-234 227.5,-234 227.5,-228 233.5,-222 239.5,-222 239.5,-222 542.5,-222 542.5,-222 548.5,-222 554.5,-228 554.5,-234 554.5,-234 554.5,-248 554.5,-248 554.5,-254 548.5,-260 542.5,-260"/>
<text text-anchor="middle" x="391" y="-244.8" font-family="Times,serif" font-size="14.00">Algoritmos em Vetores &#45; Estressados Busca</text>
<text text-anchor="middle" x="391" y="-229.8" font-family="Times,serif" font-size="14.00">0 / 5</text>
</g>
<!-- Arrays\n5 / 5&#45;&gt;Algoritmos em Vetores &#45; Estressados Busca\n0 / 5 -->
<g id="edge7" class="edge">
<title>Arrays\n5 / 5&#45;&gt;Algoritmos em Vetores &#45; Estressados Busca\n0 / 5</title>
<path fill="none" stroke="black" d="M403.71,-295.83C401.89,-288.13 399.73,-278.97 397.71,-270.42"/>
<polygon fill="black" stroke="black" points="401.05,-269.34 395.35,-260.41 394.24,-270.95 401.05,-269.34"/>
</g>
<!-- Trabalhando com uma única classe\n6 / 6&#45;&gt;Algoritmos em Vetores &#45; Estressados Busca\n0 / 5 -->
<g id="edge8" class="edge">
<title>Trabalhando com uma única classe\n6 / 6&#45;&gt;Algoritmos em Vetores &#45; Estressados Busca\n0 / 5</title>
<path fill="none" stroke="black" d="M266.89,-295.83C289.09,-286.2 316.54,-274.29 339.98,-264.13"/>
<polygon fill="black" stroke="black" points="341.63,-267.23 349.41,-260.04 338.85,-260.81 341.63,-267.23"/>
</g>
<!-- Trabalhando com uma única classe\n6 / 6&#45;&gt;Agregação e Composição\n4 / 4 -->
<g id="edge11" class="edge">
<title>Trabalhando com uma única classe\n6 / 6&#45;&gt;Agregação e Composição\n4 / 4</title>
<path fill="none" stroke="black" d="M192.7,-295.83C176.18,-286.54 155.88,-275.12 138.24,-265.2"/>
<polygon fill="black" stroke="black" points="139.72,-262.01 129.29,-260.16 136.29,-268.12 139.72,-262.01"/>
</g>
<!-- Trabalhando com arrays\n0 / 4 -->
<g id="node11" class="node">
<title>Trabalhando com arrays\n0 / 4</title>
<path fill="lightgreen" stroke="white" d="M474,-186C474,-186 308,-186 308,-186 302,-186 296,-180 296,-174 296,-174 296,-160 296,-160 296,-154 302,-148 308,-148 308,-148 474,-148 474,-148 480,-148 486,-154 486,-160 486,-160 486,-174 486,-174 486,-180 480,-186 474,-186"/>
<text text-anchor="middle" x="391" y="-170.8" font-family="Times,serif" font-size="14.00">Trabalhando com arrays</text>
<text text-anchor="middle" x="391" y="-155.8" font-family="Times,serif" font-size="14.00">0 / 4</text>
</g>
<!-- Algoritmos em Vetores &#45; Estressados Busca\n0 / 5&#45;&gt;Trabalhando com arrays\n0 / 4 -->
<g id="edge12" class="edge">
<title>Algoritmos em Vetores &#45; Estressados Busca\n0 / 5&#45;&gt;Trabalhando com arrays\n0 / 4</title>
<path fill="none" stroke="black" stroke-dasharray="1,5" d="M391,-221.83C391,-214.13 391,-204.97 391,-196.42"/>
<polygon fill="black" stroke="black" points="394.5,-196.41 391,-186.41 387.5,-196.41 394.5,-196.41"/>
</g>
<!-- Enumerações\n0 / 1 -->
<g id="node12" class="node">
<title>Enumerações\n0 / 1</title>
<path fill="lightgreen" stroke="white" d="M379.5,-112C379.5,-112 290.5,-112 290.5,-112 284.5,-112 278.5,-106 278.5,-100 278.5,-100 278.5,-86 278.5,-86 278.5,-80 284.5,-74 290.5,-74 290.5,-74 379.5,-74 379.5,-74 385.5,-74 391.5,-80 391.5,-86 391.5,-86 391.5,-100 391.5,-100 391.5,-106 385.5,-112 379.5,-112"/>
<text text-anchor="middle" x="335" y="-96.8" font-family="Times,serif" font-size="14.00">Enumerações</text>
<text text-anchor="middle" x="335" y="-81.8" font-family="Times,serif" font-size="14.00">0 / 1</text>
</g>
<!-- Trabalhando com arrays\n0 / 4&#45;&gt;Enumerações\n0 / 1 -->
<g id="edge13" class="edge">
<title>Trabalhando com arrays\n0 / 4&#45;&gt;Enumerações\n0 / 1</title>
<path fill="none" stroke="black" stroke-dasharray="1,5" d="M376.87,-147.83C370.42,-139.54 362.66,-129.56 355.57,-120.45"/>
<polygon fill="black" stroke="black" points="358.22,-118.16 349.32,-112.41 352.7,-122.46 358.22,-118.16"/>
</g>
<!-- Herança\n0 / 2 -->
<g id="node13" class="node">
<title>Herança\n0 / 2</title>
<path fill="lightgreen" stroke="white" d="M474.5,-112C474.5,-112 421.5,-112 421.5,-112 415.5,-112 409.5,-106 409.5,-100 409.5,-100 409.5,-86 409.5,-86 409.5,-80 415.5,-74 421.5,-74 421.5,-74 474.5,-74 474.5,-74 480.5,-74 486.5,-80 486.5,-86 486.5,-86 486.5,-100 486.5,-100 486.5,-106 480.5,-112 474.5,-112"/>
<text text-anchor="middle" x="448" y="-96.8" font-family="Times,serif" font-size="14.00">Herança</text>
<text text-anchor="middle" x="448" y="-81.8" font-family="Times,serif" font-size="14.00">0 / 2</text>
</g>
<!-- Trabalhando com arrays\n0 / 4&#45;&gt;Herança\n0 / 2 -->
<g id="edge14" class="edge">
<title>Trabalhando com arrays\n0 / 4&#45;&gt;Herança\n0 / 2</title>
<path fill="none" stroke="black" stroke-dasharray="1,5" d="M405.38,-147.83C411.95,-139.54 419.85,-129.56 427.06,-120.45"/>
<polygon fill="black" stroke="black" points="429.96,-122.43 433.42,-112.41 424.47,-118.08 429.96,-122.43"/>
</g>
<!-- Interface\n0 / 2 -->
<g id="node14" class="node">
<title>Interface\n0 / 2</title>
<path fill="lightgreen" stroke="white" d="M476.5,-38C476.5,-38 419.5,-38 419.5,-38 413.5,-38 407.5,-32 407.5,-26 407.5,-26 407.5,-12 407.5,-12 407.5,-6 413.5,0 419.5,0 419.5,0 476.5,0 476.5,0 482.5,0 488.5,-6 488.5,-12 488.5,-12 488.5,-26 488.5,-26 488.5,-32 482.5,-38 476.5,-38"/>
<text text-anchor="middle" x="448" y="-22.8" font-family="Times,serif" font-size="14.00">Interface</text>
<text text-anchor="middle" x="448" y="-7.8" font-family="Times,serif" font-size="14.00">0 / 2</text>
</g>
<!-- Herança\n0 / 2&#45;&gt;Interface\n0 / 2 -->
<g id="edge15" class="edge">
<title>Herança\n0 / 2&#45;&gt;Interface\n0 / 2</title>
<path fill="none" stroke="black" stroke-dasharray="1,5" d="M448,-73.83C448,-66.13 448,-56.97 448,-48.42"/>
<polygon fill="black" stroke="black" points="451.5,-48.41 448,-38.41 444.5,-48.41 451.5,-48.41"/>
</g>
</g>
</svg>
