<?xml version="1.0" encoding="UTF-8" standalone="no"?>
<!DOCTYPE svg PUBLIC "-//W3C//DTD SVG 1.1//EN"
 "http://www.w3.org/Graphics/SVG/1.1/DTD/svg11.dtd">
<!-- Generated by graphviz version 2.43.0 (0)
 -->
<!-- Title: diag Pages: 1 -->
<svg width="1499pt" height="266pt"
 viewBox="0.00 0.00 1499.00 266.00" xmlns="http://www.w3.org/2000/svg" xmlns:xlink="http://www.w3.org/1999/xlink">
<g id="graph0" class="graph" transform="scale(1 1) rotate(0) translate(4 262)">
<title>diag</title>
<polygon fill="white" stroke="transparent" points="-4,4 -4,-262 1495,-262 1495,4 -4,4"/>
<!-- Início -->
<g id="node1" class="node">
<title>Início</title>
<path fill="lightgrey" stroke="black" d="M891.5,-258C891.5,-258 859.5,-258 859.5,-258 853.5,-258 847.5,-252 847.5,-246 847.5,-246 847.5,-234 847.5,-234 847.5,-228 853.5,-222 859.5,-222 859.5,-222 891.5,-222 891.5,-222 897.5,-222 903.5,-228 903.5,-234 903.5,-234 903.5,-246 903.5,-246 903.5,-252 897.5,-258 891.5,-258"/>
<text text-anchor="middle" x="875.5" y="-236.3" font-family="Times,serif" font-size="14.00">Início</text>
</g>
<!-- Configuração de Ambiente\n0 / 3 -->
<g id="node2" class="node">
<title>Configuração de Ambiente\n0 / 3</title>
<path fill="lightblue" stroke="red" stroke-width="3" d="M193,-186C193,-186 12,-186 12,-186 6,-186 0,-180 0,-174 0,-174 0,-160 0,-160 0,-154 6,-148 12,-148 12,-148 193,-148 193,-148 199,-148 205,-154 205,-160 205,-160 205,-174 205,-174 205,-180 199,-186 193,-186"/>
<text text-anchor="middle" x="102.5" y="-170.8" font-family="Times,serif" font-size="14.00">Configuração de Ambiente</text>
<text text-anchor="middle" x="102.5" y="-155.8" font-family="Times,serif" font-size="14.00">0 / 3</text>
</g>
<!-- Início&#45;&gt;Configuração de Ambiente\n0 / 3 -->
<g id="edge1" class="edge">
<title>Início&#45;&gt;Configuração de Ambiente\n0 / 3</title>
<path fill="none" stroke="black" d="M847.39,-237.55C757.17,-232.71 466.62,-215.83 215.34,-186.05"/>
<polygon fill="black" stroke="black" points="215.64,-182.56 205.29,-184.85 214.81,-189.51 215.64,-182.56"/>
</g>
<!-- Introdução ao Typescript\n0 / 9 -->
<g id="node3" class="node">
<title>Introdução ao Typescript\n0 / 9</title>
<path fill="lightblue" stroke="red" stroke-width="3" d="M406,-186C406,-186 235,-186 235,-186 229,-186 223,-180 223,-174 223,-174 223,-160 223,-160 223,-154 229,-148 235,-148 235,-148 406,-148 406,-148 412,-148 418,-154 418,-160 418,-160 418,-174 418,-174 418,-180 412,-186 406,-186"/>
<text text-anchor="middle" x="320.5" y="-170.8" font-family="Times,serif" font-size="14.00">Introdução ao Typescript</text>
<text text-anchor="middle" x="320.5" y="-155.8" font-family="Times,serif" font-size="14.00">0 / 9</text>
</g>
<!-- Início&#45;&gt;Introdução ao Typescript\n0 / 9 -->
<g id="edge2" class="edge">
<title>Início&#45;&gt;Introdução ao Typescript\n0 / 9</title>
<path fill="none" stroke="black" d="M847.39,-236.16C778.15,-229.05 593.63,-209.5 428.49,-186.1"/>
<polygon fill="black" stroke="black" points="428.54,-182.57 418.14,-184.63 427.55,-189.5 428.54,-182.57"/>
</g>
<!-- Revisão do P5\n0 / 3 -->
<g id="node4" class="node">
<title>Revisão do P5\n0 / 3</title>
<path fill="lightblue" stroke="red" stroke-width="3" d="M541,-186C541,-186 448,-186 448,-186 442,-186 436,-180 436,-174 436,-174 436,-160 436,-160 436,-154 442,-148 448,-148 448,-148 541,-148 541,-148 547,-148 553,-154 553,-160 553,-160 553,-174 553,-174 553,-180 547,-186 541,-186"/>
<text text-anchor="middle" x="494.5" y="-170.8" font-family="Times,serif" font-size="14.00">Revisão do P5</text>
<text text-anchor="middle" x="494.5" y="-155.8" font-family="Times,serif" font-size="14.00">0 / 3</text>
</g>
<!-- Início&#45;&gt;Revisão do P5\n0 / 3 -->
<g id="edge3" class="edge">
<title>Início&#45;&gt;Revisão do P5\n0 / 3</title>
<path fill="none" stroke="black" d="M847.28,-235.1C793.83,-227.53 674.02,-209.66 563.05,-186.01"/>
<polygon fill="black" stroke="black" points="563.54,-182.54 553.02,-183.85 562.06,-189.38 563.54,-182.54"/>
</g>
<!-- Modificadores de acesso\n0 / 2 -->
<g id="node9" class="node">
<title>Modificadores de acesso\n0 / 2</title>
<path fill="pink" stroke="red" stroke-width="3" d="M750,-186C750,-186 583,-186 583,-186 577,-186 571,-180 571,-174 571,-174 571,-160 571,-160 571,-154 577,-148 583,-148 583,-148 750,-148 750,-148 756,-148 762,-154 762,-160 762,-160 762,-174 762,-174 762,-180 756,-186 750,-186"/>
<text text-anchor="middle" x="666.5" y="-170.8" font-family="Times,serif" font-size="14.00">Modificadores de acesso</text>
<text text-anchor="middle" x="666.5" y="-155.8" font-family="Times,serif" font-size="14.00">0 / 2</text>
</g>
<!-- Início&#45;&gt;Modificadores de acesso\n0 / 2 -->
<g id="edge8" class="edge">
<title>Início&#45;&gt;Modificadores de acesso\n0 / 2</title>
<path fill="none" stroke="black" d="M847.31,-229.42C817.22,-219.2 768.55,-202.67 729.29,-189.33"/>
<polygon fill="black" stroke="black" points="730.12,-185.92 719.52,-186.01 727.87,-192.54 730.12,-185.92"/>
</g>
<!-- Trabalhando com arrays\n0 / 4 -->
<g id="node11" class="node">
<title>Trabalhando com arrays\n0 / 4</title>
<path fill="pink" stroke="red" stroke-width="3" d="M958.5,-186C958.5,-186 792.5,-186 792.5,-186 786.5,-186 780.5,-180 780.5,-174 780.5,-174 780.5,-160 780.5,-160 780.5,-154 786.5,-148 792.5,-148 792.5,-148 958.5,-148 958.5,-148 964.5,-148 970.5,-154 970.5,-160 970.5,-160 970.5,-174 970.5,-174 970.5,-180 964.5,-186 958.5,-186"/>
<text text-anchor="middle" x="875.5" y="-170.8" font-family="Times,serif" font-size="14.00">Trabalhando com arrays</text>
<text text-anchor="middle" x="875.5" y="-155.8" font-family="Times,serif" font-size="14.00">0 / 4</text>
</g>
<!-- Início&#45;&gt;Trabalhando com arrays\n0 / 4 -->
<g id="edge10" class="edge">
<title>Início&#45;&gt;Trabalhando com arrays\n0 / 4</title>
<path fill="none" stroke="black" d="M875.5,-221.81C875.5,-214.11 875.5,-204.82 875.5,-196.15"/>
<polygon fill="black" stroke="black" points="879,-196.02 875.5,-186.02 872,-196.02 879,-196.02"/>
</g>
<!-- Enumerações\n0 / 1 -->
<g id="node12" class="node">
<title>Enumerações\n0 / 1</title>
<path fill="pink" stroke="red" stroke-width="3" d="M1090,-186C1090,-186 1001,-186 1001,-186 995,-186 989,-180 989,-174 989,-174 989,-160 989,-160 989,-154 995,-148 1001,-148 1001,-148 1090,-148 1090,-148 1096,-148 1102,-154 1102,-160 1102,-160 1102,-174 1102,-174 1102,-180 1096,-186 1090,-186"/>
<text text-anchor="middle" x="1045.5" y="-170.8" font-family="Times,serif" font-size="14.00">Enumerações</text>
<text text-anchor="middle" x="1045.5" y="-155.8" font-family="Times,serif" font-size="14.00">0 / 1</text>
</g>
<!-- Início&#45;&gt;Enumerações\n0 / 1 -->
<g id="edge11" class="edge">
<title>Início&#45;&gt;Enumerações\n0 / 1</title>
<path fill="none" stroke="black" d="M903.57,-227.28C927.82,-217.15 963.52,-202.24 993.05,-189.91"/>
<polygon fill="black" stroke="black" points="994.51,-193.09 1002.39,-186 991.82,-186.63 994.51,-193.09"/>
</g>
<!-- Herança\n0 / 2 -->
<g id="node13" class="node">
<title>Herança\n0 / 2</title>
<path fill="pink" stroke="red" stroke-width="3" d="M1185,-186C1185,-186 1132,-186 1132,-186 1126,-186 1120,-180 1120,-174 1120,-174 1120,-160 1120,-160 1120,-154 1126,-148 1132,-148 1132,-148 1185,-148 1185,-148 1191,-148 1197,-154 1197,-160 1197,-160 1197,-174 1197,-174 1197,-180 1191,-186 1185,-186"/>
<text text-anchor="middle" x="1158.5" y="-170.8" font-family="Times,serif" font-size="14.00">Herança</text>
<text text-anchor="middle" x="1158.5" y="-155.8" font-family="Times,serif" font-size="14.00">0 / 2</text>
</g>
<!-- Início&#45;&gt;Herança\n0 / 2 -->
<g id="edge12" class="edge">
<title>Início&#45;&gt;Herança\n0 / 2</title>
<path fill="none" stroke="black" d="M903.81,-234.02C946.72,-226.17 1030.83,-209.64 1110.26,-186.18"/>
<polygon fill="black" stroke="black" points="1111.35,-189.51 1119.93,-183.28 1109.34,-182.8 1111.35,-189.51"/>
</g>
<!-- Interface\n0 / 2 -->
<g id="node14" class="node">
<title>Interface\n0 / 2</title>
<path fill="pink" stroke="red" stroke-width="3" d="M1284,-186C1284,-186 1227,-186 1227,-186 1221,-186 1215,-180 1215,-174 1215,-174 1215,-160 1215,-160 1215,-154 1221,-148 1227,-148 1227,-148 1284,-148 1284,-148 1290,-148 1296,-154 1296,-160 1296,-160 1296,-174 1296,-174 1296,-180 1290,-186 1284,-186"/>
<text text-anchor="middle" x="1255.5" y="-170.8" font-family="Times,serif" font-size="14.00">Interface</text>
<text text-anchor="middle" x="1255.5" y="-155.8" font-family="Times,serif" font-size="14.00">0 / 2</text>
</g>
<!-- Início&#45;&gt;Interface\n0 / 2 -->
<g id="edge13" class="edge">
<title>Início&#45;&gt;Interface\n0 / 2</title>
<path fill="none" stroke="black" d="M903.78,-236.34C959.85,-230.66 1089.09,-215.6 1205.04,-186.15"/>
<polygon fill="black" stroke="black" points="1205.97,-189.52 1214.78,-183.63 1204.22,-182.74 1205.97,-189.52"/>
</g>
<!-- Atividades de desenho\n0 / 11 -->
<g id="node15" class="node">
<title>Atividades de desenho\n0 / 11</title>
<path fill="pink" stroke="red" stroke-width="3" d="M1479,-186C1479,-186 1326,-186 1326,-186 1320,-186 1314,-180 1314,-174 1314,-174 1314,-160 1314,-160 1314,-154 1320,-148 1326,-148 1326,-148 1479,-148 1479,-148 1485,-148 1491,-154 1491,-160 1491,-160 1491,-174 1491,-174 1491,-180 1485,-186 1479,-186"/>
<text text-anchor="middle" x="1402.5" y="-170.8" font-family="Times,serif" font-size="14.00">Atividades de desenho</text>
<text text-anchor="middle" x="1402.5" y="-155.8" font-family="Times,serif" font-size="14.00">0 / 11</text>
</g>
<!-- Início&#45;&gt;Atividades de desenho\n0 / 11 -->
<g id="edge14" class="edge">
<title>Início&#45;&gt;Atividades de desenho\n0 / 11</title>
<path fill="none" stroke="black" d="M903.5,-236.15C970.71,-229.17 1146.63,-210.15 1303.68,-186.24"/>
<polygon fill="black" stroke="black" points="1304.64,-189.63 1313.99,-184.65 1303.58,-182.71 1304.64,-189.63"/>
</g>
<!-- Classes e Objetos\n0 / 3 -->
<g id="node5" class="node">
<title>Classes e Objetos\n0 / 3</title>
<path fill="pink" stroke="white" d="M186,-112C186,-112 67,-112 67,-112 61,-112 55,-106 55,-100 55,-100 55,-86 55,-86 55,-80 61,-74 67,-74 67,-74 186,-74 186,-74 192,-74 198,-80 198,-86 198,-86 198,-100 198,-100 198,-106 192,-112 186,-112"/>
<text text-anchor="middle" x="126.5" y="-96.8" font-family="Times,serif" font-size="14.00">Classes e Objetos</text>
<text text-anchor="middle" x="126.5" y="-81.8" font-family="Times,serif" font-size="14.00">0 / 3</text>
</g>
<!-- Introdução ao Typescript\n0 / 9&#45;&gt;Classes e Objetos\n0 / 3 -->
<g id="edge4" class="edge">
<title>Introdução ao Typescript\n0 / 9&#45;&gt;Classes e Objetos\n0 / 3</title>
<path fill="none" stroke="black" stroke-dasharray="1,5" d="M271.55,-147.83C245.14,-138.03 212.37,-125.87 184.67,-115.59"/>
<polygon fill="black" stroke="black" points="185.7,-112.24 175.1,-112.04 183.26,-118.8 185.7,-112.24"/>
</g>
<!-- Arrays\n0 / 5 -->
<g id="node6" class="node">
<title>Arrays\n0 / 5</title>
<path fill="pink" stroke="white" d="M268.5,-112C268.5,-112 228.5,-112 228.5,-112 222.5,-112 216.5,-106 216.5,-100 216.5,-100 216.5,-86 216.5,-86 216.5,-80 222.5,-74 228.5,-74 228.5,-74 268.5,-74 268.5,-74 274.5,-74 280.5,-80 280.5,-86 280.5,-86 280.5,-100 280.5,-100 280.5,-106 274.5,-112 268.5,-112"/>
<text text-anchor="middle" x="248.5" y="-96.8" font-family="Times,serif" font-size="14.00">Arrays</text>
<text text-anchor="middle" x="248.5" y="-81.8" font-family="Times,serif" font-size="14.00">0 / 5</text>
</g>
<!-- Introdução ao Typescript\n0 / 9&#45;&gt;Arrays\n0 / 5 -->
<g id="edge5" class="edge">
<title>Introdução ao Typescript\n0 / 9&#45;&gt;Arrays\n0 / 5</title>
<path fill="none" stroke="black" stroke-dasharray="1,5" d="M302.33,-147.83C293.78,-139.28 283.44,-128.94 274.12,-119.62"/>
<polygon fill="black" stroke="black" points="276.46,-117.01 266.91,-112.41 271.51,-121.96 276.46,-117.01"/>
</g>
<!-- Trabalhando com Testes\n0 / 6 -->
<g id="node7" class="node">
<title>Trabalhando com Testes\n0 / 6</title>
<path fill="pink" stroke="white" d="M476.5,-112C476.5,-112 310.5,-112 310.5,-112 304.5,-112 298.5,-106 298.5,-100 298.5,-100 298.5,-86 298.5,-86 298.5,-80 304.5,-74 310.5,-74 310.5,-74 476.5,-74 476.5,-74 482.5,-74 488.5,-80 488.5,-86 488.5,-86 488.5,-100 488.5,-100 488.5,-106 482.5,-112 476.5,-112"/>
<text text-anchor="middle" x="393.5" y="-96.8" font-family="Times,serif" font-size="14.00">Trabalhando com Testes</text>
<text text-anchor="middle" x="393.5" y="-81.8" font-family="Times,serif" font-size="14.00">0 / 6</text>
</g>
<!-- Introdução ao Typescript\n0 / 9&#45;&gt;Trabalhando com Testes\n0 / 6 -->
<g id="edge6" class="edge">
<title>Introdução ao Typescript\n0 / 9&#45;&gt;Trabalhando com Testes\n0 / 6</title>
<path fill="none" stroke="black" stroke-dasharray="1,5" d="M338.92,-147.83C347.65,-139.22 358.23,-128.79 367.74,-119.4"/>
<polygon fill="black" stroke="black" points="370.42,-121.68 375.08,-112.16 365.51,-116.69 370.42,-121.68"/>
</g>
<!-- Agregação e Composição\n0 / 4 -->
<g id="node10" class="node">
<title>Agregação e Composição\n0 / 4</title>
<path fill="pink" stroke="white" d="M688.5,-112C688.5,-112 518.5,-112 518.5,-112 512.5,-112 506.5,-106 506.5,-100 506.5,-100 506.5,-86 506.5,-86 506.5,-80 512.5,-74 518.5,-74 518.5,-74 688.5,-74 688.5,-74 694.5,-74 700.5,-80 700.5,-86 700.5,-86 700.5,-100 700.5,-100 700.5,-106 694.5,-112 688.5,-112"/>
<text text-anchor="middle" x="603.5" y="-96.8" font-family="Times,serif" font-size="14.00">Agregação e Composição</text>
<text text-anchor="middle" x="603.5" y="-81.8" font-family="Times,serif" font-size="14.00">0 / 4</text>
</g>
<!-- Introdução ao Typescript\n0 / 9&#45;&gt;Agregação e Composição\n0 / 4 -->
<g id="edge9" class="edge">
<title>Introdução ao Typescript\n0 / 9&#45;&gt;Agregação e Composição\n0 / 4</title>
<path fill="none" stroke="black" stroke-dasharray="1,5" d="M391.55,-147.92C431.41,-137.78 481.29,-125.09 522.65,-114.57"/>
<polygon fill="black" stroke="black" points="523.59,-117.94 532.42,-112.08 521.87,-111.16 523.59,-117.94"/>
</g>
<!-- Algoritmos em Vetores &#45; Estressados Busca\n0 / 5 -->
<g id="node8" class="node">
<title>Algoritmos em Vetores &#45; Estressados Busca\n0 / 5</title>
<path fill="pink" stroke="white" d="M400,-38C400,-38 97,-38 97,-38 91,-38 85,-32 85,-26 85,-26 85,-12 85,-12 85,-6 91,0 97,0 97,0 400,0 400,0 406,0 412,-6 412,-12 412,-12 412,-26 412,-26 412,-32 406,-38 400,-38"/>
<text text-anchor="middle" x="248.5" y="-22.8" font-family="Times,serif" font-size="14.00">Algoritmos em Vetores &#45; Estressados Busca</text>
<text text-anchor="middle" x="248.5" y="-7.8" font-family="Times,serif" font-size="14.00">0 / 5</text>
</g>
<!-- Arrays\n0 / 5&#45;&gt;Algoritmos em Vetores &#45; Estressados Busca\n0 / 5 -->
<g id="edge7" class="edge">
<title>Arrays\n0 / 5&#45;&gt;Algoritmos em Vetores &#45; Estressados Busca\n0 / 5</title>
<path fill="none" stroke="black" stroke-dasharray="1,5" d="M248.5,-73.83C248.5,-66.13 248.5,-56.97 248.5,-48.42"/>
<polygon fill="black" stroke="black" points="252,-48.41 248.5,-38.41 245,-48.41 252,-48.41"/>
</g>
</g>
</svg>
